# xmcd CD database file
#
# Track frame offsets:
#	150
#	13007
#	24692
#	35885
#	48665
#	59275
#	70657
#	82535
#	95700
#	107877
#	120322
#	135365
#	148132
#	161155
#	172187
#	185370
#	197667
#	211132
#	221587
#	232707
#	244965
#	256365
#	269162
#	279212
#	290492
#
# Disc length: 4033 seconds
#
# Revision: 1
# Processed by: cddbd v1.5.2PL0 Copyright (c) Steve Scherf et al.
# Submitted via: CDex 1.51
#
DISCID=750fbf19
DTITLE=Ted Heath - Turn On The Heath
DYEAR=1900
DGENRE=Jazz
TTITLE0=Obsession
TTITLE1=Its All In The Game
TTITLE2=Grand Central Station
TTITLE3=Opus One
TTITLE4=Its All Over But The Memories
TTITLE5=Route 66
TTITLE6=Blacksmith Blues
TTITLE7=Hawaiian Mambo
TTITLE8=Narcissus
TTITLE9=Not So Quiet Please
TTITLE10=Turn On The Heath
TTITLE11=Dry Bones
TTITLE12=Shes A Lady
TTITLE13=Birmingham Bounce
TTITLE14=Smoothy
TTITLE15=My Very Good Friend The Milkman
TTITLE16=Tequila
TTITLE17=Get Out Of Town Before Sundown
TTITLE18=Mountain Greenery
TTITLE19=Didnt We
TTITLE20=Any Old Iron
TTITLE21=Wotcher (Knocked Em In The Old Kent Road)
TTITLE22=Gone Gone Gone
TTITLE23=Two Guitars
TTITLE24=Listen To My Music
EXTD=
EXTT0=
EXTT1=
EXTT2=
EXTT3=
EXTT4=
EXTT5=
EXTT6=
EXTT7=
EXTT8=
EXTT9=
EXTT10=
EXTT11=
EXTT12=
EXTT13=
EXTT14=
EXTT15=
EXTT16=
EXTT17=
EXTT18=
EXTT19=
EXTT20=
EXTT21=
EXTT22=
EXTT23=
EXTT24=
PLAYORDER=
